<svg width="54" height="77" viewBox="0 0 54 77" fill="none" xmlns="http://www.w3.org/2000/svg">
<path d="M29.1608 33.5315L27.6538 33.7694V38.3318L29.1608 38.1805V33.5315ZM36.4518 19.347L34.6789 19.8659V23.5201L36.4518 23.066V19.347ZM19.1882 24.6877L22.047 23.8661V23.2823L19.1882 24.1257V24.6877ZM29.1829 27.6933L27.6759 28.0177V31.326L29.1829 31.0665V27.6933ZM1.28185 36.0614L2.2791 35.8885V33.5748L1.28185 33.791V36.0614ZM15.7089 35.4776V40.1914L16.8834 40.0832V34.9802C16.8834 34.9802 16.9056 34.0072 16.4845 33.9424C15.7088 33.8559 15.7089 35.4776 15.7089 35.4776ZM14.9554 34.2883C14.3792 34.2883 14.3792 35.8452 14.3792 35.8452V40.2995L15.3321 40.2131V35.3263C15.3321 35.3479 15.3543 34.2883 14.9554 34.2883ZM36.4297 26.1149L34.6567 26.5041V30.0935L36.4297 29.7692V26.1149ZM33.8811 26.6771L32.1969 27.0447V30.5476L33.8811 30.2448V26.6771ZM1.28185 40.8617L2.2791 40.7751V37.5534L1.28185 37.7047V40.8617ZM27.0111 33.8559L25.5928 34.0721V38.5264L27.0111 38.3967V33.8559ZM1.28185 31.9315L2.2791 31.672V29.3151L1.28185 29.6178V31.9315ZM31.4655 27.1961L29.8699 27.542V30.9368L31.4655 30.6557V27.1961ZM2.7445 31.5639L3.80824 31.3043V28.8826L2.7445 29.1853V31.5639ZM2.7445 40.732L3.80824 40.6238V37.3155L2.7445 37.4669V40.732ZM31.4877 20.774L29.8921 21.2498V24.7094L31.4877 24.3202V20.774ZM29.2051 21.4443L27.6981 21.8768V25.25L29.2051 24.8824V21.4443ZM7.64216 36.7533L6.57839 36.9047V40.3643L7.64216 40.2562V36.7533ZM6.11303 36.9696L5.09359 37.1209V40.494L6.11303 40.4076V36.9696ZM27.0332 22.0715L25.5928 22.4823V25.7689L27.0332 25.4013V22.0715ZM33.9033 20.0821L32.219 20.5578V24.104L33.9033 23.6932V20.0821ZM22.047 21.812L19.166 22.7201V23.7796L22.047 22.9148V21.812ZM5.11578 35.3911L6.13518 35.2181V32.7532L5.11578 32.9693V35.3911ZM7.64216 27.7583L6.57839 28.0609V30.5909L7.64216 30.3314V27.7583ZM27.0111 28.1691L25.5928 28.4717V31.6937L27.0111 31.4341V28.1691ZM6.11303 28.2123L5.09359 28.515V31.0017L6.11303 30.7422V28.2123ZM9.23774 27.3041L8.12968 27.6285V30.2232L9.23774 29.9422V27.3041ZM12.4733 24.8391L10.0134 25.596V26.5258L12.4733 25.7905V24.8391ZM12.4733 26.1149L10.0134 26.8285V27.3258L12.4733 26.6122V26.1149ZM2.7445 35.8236L3.80824 35.6289V33.2504L2.7445 33.4883V35.8236ZM42.1694 31.499L40.5073 31.7585V37.0994L42.1694 36.9263V31.499ZM42.1694 24.8175L40.5073 25.1852V29.0123L42.1694 28.7097V24.8175ZM31.4434 33.1856L29.8478 33.4235V38.1156L31.4434 37.9642V33.1856ZM47.333 23.6932L45.4936 24.104V28.1475L47.333 27.8231V23.6932ZM44.6737 24.2554L42.9229 24.6446V28.58L44.6737 28.2772V24.2554ZM42.9451 36.8398L44.6958 36.6669V31.1098L42.9451 31.3693V36.8398ZM47.333 15.3683L45.4271 15.9089V20.1253L47.333 19.6497V15.3683ZM45.5157 36.602L47.3552 36.4291V30.7422L45.5157 31.0233V36.602ZM36.4297 32.4071L34.6567 32.6882V37.6614L36.4297 37.4886V32.4071ZM53.2057 10.4816L48.6184 8.96801L39.089 12.406V15.5197L38.2025 15.8224V14.3954L37.8037 14.2871L36.5405 14.7196V16.3846L35.8535 16.6008V15.1954L35.4546 15.0872L34.2357 15.5197V17.163L33.593 17.3792V15.9954L33.1941 15.8873L31.9974 16.2981V17.9198L31.3769 18.1144V16.7522L30.978 16.6441L29.8034 17.0549V18.655L29.2273 18.8497V17.4874L28.8283 17.3792L27.6981 17.7685V19.347L27.1662 19.52V18.2009L26.7673 18.0928L26.2576 18.2658L22.9778 17.4658L18.2131 19.1956V19.9092L14.1354 21.3795L13.1603 21.1632L9.23774 22.5687V22.5904V24.104L8.32915 24.4066V25.8771L7.99672 25.9852V24.7527L7.59783 24.6446L6.68921 24.9472V26.4177L6.4011 26.5258V25.2932L6.00221 25.1852L5.71411 25.2932V25.0121L4.67252 24.8175L0.882964 26.1582V1.09726H53.2944V10.4816H53.2057ZM48.6184 10.6762L39.4879 13.8763V12.6006L48.6184 9.31392V10.6762ZM48.6184 20.8173L39.4879 23.0229V15.3899L48.6184 12.3195V20.8173ZM48.6184 39.5426H48.4854L39.4879 40.1048V24.5148L48.6184 22.4174V39.5426ZM48.5962 40.6023L39.4879 41.0995V40.7103L48.5962 40.1914V40.6023ZM48.5962 42.0942L46.4465 42.2023V41.7915L48.5962 41.6834V42.0942ZM48.5962 43.5862L46.4465 43.6727V43.2618L48.5962 43.1754V43.5862ZM48.5962 45.0566L46.4465 45.1214V44.7105L48.5962 44.6241V45.0566ZM48.5962 46.5485L46.4465 46.6133V46.2025L48.5962 46.1377V46.5485ZM44.1639 47.1539V41.7049L46.1363 41.5968V47.1106L44.1639 47.1539ZM41.571 47.1972V41.8348L43.4548 41.7266V47.1539L41.571 47.1972ZM41.2608 46.3539V46.7431L39.5101 46.7864V46.3972L41.2608 46.3539ZM41.2608 44.9268V45.316L39.5101 45.3808V44.9916L41.2608 44.9268ZM39.4879 42.5266V42.1374L41.2386 42.051V42.4401L39.4879 42.5266ZM41.2386 43.478V43.8672L39.4879 43.9321V43.5429L41.2386 43.478ZM48.5962 48.0405L39.4879 48.2351V47.8459L48.5962 47.6512V48.0405ZM48.5962 49.5325L39.4879 49.6622V49.2729L48.5962 49.1217V49.5325ZM36.7177 16.2765V14.8277L37.6485 14.5035V15.9522L36.7177 16.2765ZM34.3908 17.0549V15.6278L35.2772 15.3251V16.7522L34.3908 17.0549ZM32.1525 17.79V16.4063L33.0168 16.1035V17.5091L32.1525 17.79ZM29.9807 18.5253V17.163L30.8007 16.8819V18.2658L29.9807 18.5253ZM27.8532 19.2389V17.8983L28.651 17.6172V18.9794L27.8532 19.2389ZM25.7922 19.9308V18.6117L26.5679 18.3523V19.6929L25.7922 19.9308ZM39.089 18.5902L37.2717 19.1091V22.8715L39.089 22.4174V23.758L24.8836 27.1311V21.639L39.089 17.0333V18.5902ZM39.089 25.5311L37.2717 25.9203V29.6178L39.089 29.2934V30.3314L24.8836 32.7315V27.8664L39.089 24.6229V25.5311ZM39.089 31.9963L37.2717 32.2774V37.402L39.089 37.2291V39.9968L24.8836 41.0563V32.8396L24.9058 32.926L39.1112 30.5476V31.9963H39.089ZM39.089 41.1212L24.8836 41.8996V41.532L39.089 40.732V41.1212ZM37.3826 47.2405V42.0942L39.089 42.0077V47.1972L37.3826 47.2405ZM34.967 47.3053V42.224L36.6291 42.1374V47.262L34.967 47.3053ZM32.64 47.3702V42.3537L34.2578 42.2671V47.3269L32.64 47.3702ZM30.3574 47.435V42.4834L31.9309 42.3969V47.3917L30.3574 47.435ZM28.1192 47.4783V42.5915L29.6483 42.5051V47.435L28.1192 47.4783ZM25.9474 47.5431V42.7213L27.4322 42.6348V47.5L25.9474 47.5431ZM25.6814 46.8297V47.1972L24.8615 47.2188V46.8512L25.6814 46.8297ZM25.6814 45.4889V45.8566L24.8615 45.8782V45.5106L25.6814 45.4889ZM24.8615 43.2402V42.8726L25.6814 42.8293V43.1969L24.8615 43.2402ZM25.6814 44.1483V44.516L24.8615 44.5591V44.1916L25.6814 44.1483ZM39.089 48.2351L24.8836 48.5378V48.1703L39.089 47.8459V48.2351ZM39.089 49.6622L24.8836 49.8568V49.4892L39.089 49.2729V49.6622ZM22.9334 19.6497L18.479 21.2065V19.4118L22.9334 17.79V19.6497ZM22.9334 27.5636L19.2547 26.6338L19.2325 26.6122L19.0331 26.8933L18.4568 27.715V22.4823L22.9113 20.9687V27.5636H22.9334ZM22.9334 42.0077L18.3017 42.2671V41.9212L22.9334 41.6618V42.0077ZM22.9334 43.3266L21.6038 43.3916V43.0457L22.9334 42.9807V43.3266ZM22.9334 44.6457L21.6038 44.7105V44.343L22.9334 44.278V44.6457ZM22.9334 45.9647L21.6038 46.008V45.6403L22.9334 45.5971V45.9647ZM22.9334 47.262L21.6038 47.3053V46.9377L22.9334 46.8945V47.262ZM19.6758 47.8026V43.0672L21.36 43.0024V47.7811L19.6758 47.8026ZM19.4319 47.0242V47.3702L18.479 47.3917V47.0458L19.4319 47.0242ZM19.4319 45.7269V46.0728L18.479 46.0944V45.7485L19.4319 45.7269ZM18.479 43.5429V43.1969L19.4319 43.1537V43.4996L18.479 43.5429ZM19.4319 44.4294V44.7755L18.479 44.8186V44.4727L19.4319 44.4294ZM22.9334 48.5811L18.479 48.6675V48.3216L22.9334 48.2134V48.5811ZM22.9334 49.9001L18.479 49.9649V49.6189L22.9334 49.554V49.9001ZM18.1687 22.6552V23.4769L16.8391 23.8877V27.9961L18.1687 27.6501V28.1475L17.1272 29.6395L14.0911 30.3314V23.9959L18.1687 22.6552ZM18.1687 21.4012V22.4823L14.1132 23.8013V22.7849L18.1687 21.4012ZM18.1687 21.2281L14.1132 22.6337V21.7254L18.1687 20.2334V21.2281ZM17.0607 30.3529L19.3212 27.088L22.2686 29.1853L17.0607 30.3529ZM18.5677 32.2774V31.0017L22.8669 30.1151V31.4557L18.5677 32.2774ZM22.2243 39.6076V31.7585L22.8669 31.6287V39.5426L22.2243 39.6076ZM21.4708 39.6292V31.9098L22.047 31.8017V39.5859L21.4708 39.6292ZM19.853 39.7806V32.2126L21.2935 31.9531V33.3802C21.227 33.1856 21.1162 32.9909 20.9168 32.9693C20.0746 32.8612 20.0525 34.483 20.0525 34.483V39.7806H19.853ZM19.1882 39.8237V32.3207L19.6979 32.2342V39.7806L19.1882 39.8237ZM18.5455 39.867V32.4288L19.0109 32.3423V39.8237L18.7892 39.8454L18.5455 39.867ZM22.8448 39.7156V40.8834L18.5455 41.1643V40.04L22.8448 39.7156ZM18.1687 33.618C17.4153 33.5747 17.3931 35.0235 17.3931 35.0235V40.0617L18.1687 39.9968V41.4671L14.1132 41.7266V31.0017L16.5953 30.4611L16.3294 30.8503L18.1909 30.4395L18.1687 33.618ZM17.3931 51.3055H15.9748V50.9379H17.3931V51.3055ZM17.3931 52.2569H12.0301V51.8893H14.0246V46.6999C14.0246 46.6999 14.0468 45.0998 14.9997 45.1863C15.5537 45.2512 15.5094 46.2025 15.5094 46.2025V51.8677H17.371V52.2569H17.3931ZM9.54803 49.7487L12.2517 49.7054V50.0514L9.54803 50.0946V49.7487ZM13.0938 23.0877L9.48152 24.3418V22.8066L13.0938 21.5092V23.0877ZM13.3376 51.3055H12.0301V50.9379H13.3376V51.3055ZM9.54803 48.5162L12.2517 48.4514V48.7973L9.54803 48.8622V48.5162ZM8.3513 32.2557L9.94692 29.834L12.2295 31.4125L8.3513 32.2557ZM9.63666 33.964V32.8612L13.0273 32.1693V33.3369L9.63666 33.964ZM12.6284 40.386V33.5748L13.0273 33.5099V40.3643L12.6284 40.386ZM12.0522 40.4292V33.6613L12.4512 33.5748V40.3643L12.0522 40.4292ZM10.6339 40.559V33.9424L11.8749 33.7046V34.9802C11.8306 34.8505 11.742 34.7424 11.609 34.7424C11.055 34.7424 11.0107 35.9316 11.0107 35.9316V40.5157L10.6339 40.559ZM10.1464 40.6023V34.0288L10.4788 33.964V40.559L10.2572 40.5806L10.1464 40.6023ZM9.63666 40.6454V34.1369L9.96907 34.0721V40.6238L9.79177 40.6454H9.63666ZM9.63666 41.7915V40.7968L13.0273 40.494V41.4887L9.63666 41.7915ZM9.57018 43.9754V43.651L10.235 43.6077V43.9538L9.57018 43.9754ZM9.57018 45.1863V44.8619L10.235 44.8403V45.1646L9.57018 45.1863ZM10.2128 47.2836V47.6297L9.54803 47.6512V47.3269L10.2128 47.2836ZM9.57018 46.4188V46.0728L10.235 46.0511V46.3972L9.57018 46.4188ZM11.5425 43.651V47.6512L10.4123 47.6297V43.716L11.5425 43.651ZM9.57018 42.7429V42.3969L12.3182 42.2455V42.5915L9.57018 42.7429ZM11.742 43.8672V43.5213L12.2517 43.4996V43.8457L11.742 43.8672ZM11.742 45.0997V44.7538L12.2517 44.7322V45.0782L11.742 45.0997ZM12.2517 47.2188V47.5648L11.742 47.5864V47.2405L12.2517 47.2188ZM11.742 46.3322V45.9863L12.2517 45.9647V46.3106L11.742 46.3322ZM13.0938 44.1916V50.3757H12.429V42.9807L17.0385 42.6996V50.3757H15.9969V44.1268L13.0938 44.1916ZM8.43997 25.7905V24.558L9.01615 24.3635V25.6176L8.43997 25.7905ZM6.80002 26.3095V25.0771L7.3762 24.8824V26.1149L6.80002 26.3095ZM5.20441 26.85V25.6176L5.75844 25.423V26.6555L5.20441 26.85ZM9.54803 26.4177V25.4663L13.0938 24.2769V30.2665L9.85829 29.3583L8.79452 30.9584L4.58389 31.9531V28.0177L9.54803 26.4177ZM9.23774 35.3479L4.58389 36.1263V32.5152L8.32915 31.672L8.0632 32.0828L7.64216 32.7099V32.4288L6.57839 32.6666V35.1533L7.64216 34.9586V32.7532L8.12968 32.6451V34.8721L9.23774 34.6775V35.3479ZM9.23774 36.4939L8.12968 36.6669V40.2131L9.23774 40.1048V41.7049L4.58389 42.051V36.2128L4.60604 36.2992L9.23774 35.5208V36.4939ZM9.23774 42.7645L0.7943 43.2402V42.9159L9.23774 42.4401V42.7645ZM8.0632 47.8459V43.6077L9.17126 43.5646V47.8242L8.0632 47.8459ZM6.51191 47.8891V43.6943L7.57565 43.651V47.8675L6.51191 47.8891ZM5.02711 47.9108V43.7375L6.04655 43.6943V47.8675L5.02711 47.9108ZM4.78334 47.435V47.7594L3.98553 47.7811V47.4567L4.78334 47.435ZM4.78334 46.2458V46.5701L3.98553 46.5917V46.2674L4.78334 46.2458ZM3.98553 44.2349V43.9105L4.78334 43.8672V44.1916L3.98553 44.2349ZM4.78334 45.0566V45.3808L3.98553 45.4241V45.0997L4.78334 45.0566ZM2.78884 47.9539V43.8457L3.80824 43.8024V47.9108L2.78884 47.9539ZM1.34833 47.9972V43.9105L2.34562 43.8672V47.9756L1.70292 47.9972H1.34833ZM9.23774 48.8622L0.7943 49.0351V48.7108L9.23774 48.5162V48.8622ZM9.23774 50.0731L0.7943 50.2028V49.8784L9.23774 49.7487V50.0731ZM0.816483 47.5648L1.21537 47.5431V47.8675L0.816483 47.8891V47.5648ZM0.816483 46.3972L1.21537 46.3755V46.6999L0.816483 46.7214V46.3972ZM0.816483 45.2294L1.21537 45.2079V45.5322L0.816483 45.5538V45.2294ZM0.816483 44.0619L1.21537 44.0402V44.3646L0.816483 44.3863V44.0619ZM0.816483 33.3802L4.29579 32.5801V42.0726L0.816483 42.3104V33.3802ZM0.816483 28.4069L4.29579 27.2393V31.6504L0.816483 32.4937V28.4069ZM0.816483 26.4608L4.29579 25.25V26.1366L0.816483 27.3474V26.4608ZM53.4717 0.599976H0.262451V52.7759H53.7376V0.599976H53.4717ZM33.8811 32.7963L32.1969 33.0558V37.8778L33.8811 37.7264V32.7963ZM16.2629 24.0607L14.8446 24.5148V28.4717L16.2629 28.1258V24.0607ZM44.6072 16.1683L42.8121 16.6874V20.7956L44.6072 20.3417V16.1683ZM41.9921 16.9036L40.2635 17.4008V21.4228L41.9921 20.9903V16.9036ZM51.6766 66.4631V64.4955H51.1004V67.4795H51.4993L53.1392 65.4469V67.4145H53.7154V64.4306H53.3166L51.6766 66.4631ZM52.4079 63.8252C52.2306 63.8252 52.0755 63.7387 52.009 63.5657L51.6101 63.7171C51.7209 64.0198 52.009 64.2144 52.4079 64.2144C52.829 64.2144 53.0949 64.0198 53.2057 63.7171L52.8068 63.5657C52.7403 63.7171 52.5852 63.8252 52.4079 63.8252ZM47.5324 66.1388C47.9535 66.1388 48.0643 66.3551 48.0643 66.5497C48.0643 66.9389 47.6211 66.9389 47.5324 66.9389H47.2V66.1388H47.5324ZM46.6017 64.4955V67.4145H47.6654C47.9092 67.4145 48.2859 67.3713 48.5075 67.047C48.6183 66.8956 48.6627 66.701 48.6627 66.528C48.6627 66.2902 48.574 66.0524 48.3746 65.8794C48.1751 65.7064 47.9092 65.6198 47.6433 65.6414H47.1778V64.4955H46.6017ZM49.5048 64.4955H48.9286V67.4145H49.5048V64.4955ZM45.0282 67.4145V64.4955H44.452V65.6199H43.1888V64.4955H42.6126V67.4145H43.1888V66.1172H44.452V67.4145H45.0282ZM41.017 67.4145V64.4955H40.4187V65.6199H39.1555V64.4955H38.5793V67.4145H39.1555V66.1172H40.4187V67.4145H41.017ZM37.1167 64.9928V64.4955H35.4546V67.4145H37.1167V66.9172H36.0307V66.1172H37.0723V65.6199H36.0307V64.9711L37.1167 64.9928ZM33.4379 66.528C33.4379 66.6578 33.3714 66.7875 33.2606 66.8739C33.1276 66.9388 32.9946 66.9605 32.8617 66.9605H32.6179V66.1605H32.8395C32.9725 66.1605 33.1055 66.182 33.2384 66.2253C33.3492 66.2469 33.4379 66.3767 33.4379 66.528ZM32.5957 64.9495H32.773C33.0168 64.9495 33.2163 65.0577 33.2163 65.3172C33.2163 65.6848 32.8617 65.7064 32.773 65.7064H32.5957V64.9495ZM33.7703 65.2739C33.7703 65.036 33.6816 64.8199 33.4822 64.6685C33.2384 64.4955 32.906 64.4955 32.7509 64.4955H32.0195V67.4145H33.0168C33.2827 67.4361 33.5708 67.3497 33.7703 67.1767C33.9476 67.0253 34.0362 66.8091 34.0362 66.5928C34.0362 66.3982 33.9697 66.182 33.8146 66.0523C33.7038 65.9442 33.5708 65.8794 33.4157 65.8577C33.6373 65.7496 33.7703 65.5117 33.7703 65.2739ZM28.8283 64.9928H29.4932V67.4145H30.0693V64.9928H30.7342V64.4955H28.8062V64.9928H28.8283ZM26.9668 64.9495C27.2549 64.9495 27.5208 65.0793 27.6981 65.2739V64.6036C27.4765 64.4738 27.2105 64.4306 26.9668 64.4306C26.5679 64.4089 26.169 64.5603 25.8587 64.8197C25.5484 65.1225 25.3711 65.5334 25.3711 65.9658C25.349 66.7875 26.0139 67.4795 26.856 67.4795C26.8781 67.4795 26.9003 67.4795 26.9446 67.4795C27.2106 67.4795 27.4543 67.4145 27.6759 67.3064V66.6361C27.4987 66.8307 27.2549 66.9605 26.9668 66.9605C26.4127 66.9821 25.9695 66.5497 25.9474 66.0091C25.9474 65.9875 25.9474 65.9658 25.9474 65.9658C25.9917 65.4253 26.3684 64.9495 26.9668 64.9495ZM22.8226 64.9928H23.0221C23.1772 64.9711 23.3102 65.0145 23.4431 65.0793C23.5539 65.1658 23.6205 65.2739 23.6205 65.4036C23.6205 65.5333 23.554 65.6632 23.4653 65.7496C23.3545 65.8145 23.2215 65.8577 23.0885 65.8361H22.8448L22.8226 64.9928ZM22.2464 67.4145H22.8226V66.3334H23.1994C23.554 66.3334 23.7977 66.2253 23.9529 66.0739C24.108 65.9009 24.1966 65.6631 24.1966 65.4253C24.1966 65.1658 24.0858 64.9063 23.8864 64.7117C23.6648 64.5171 23.4431 64.4955 23.0885 64.4955H22.2243V67.4145H22.2464ZM19.9195 66.3334H19.0774L19.4984 65.2739L19.9195 66.3334ZM17.9915 67.4145H18.6342L18.9001 66.8092H20.0968L20.3627 67.4145H20.9833L19.7201 64.4306H19.2768L17.9915 67.4145ZM15.177 66.5712C15.2213 66.4415 15.2878 66.2036 15.2878 65.7712V64.9928H16.1521V66.9389H14.9332C15.044 66.8308 15.1327 66.7226 15.177 66.5712ZM14.7116 65.7712C14.7337 66.0306 14.6894 66.2902 14.6008 66.528C14.5122 66.7443 14.3349 66.9389 14.1354 66.9172V68.0632H14.6673V67.4145H16.5067V68.0632H17.0385V66.9172H16.7283V64.4955H14.7116V65.7712ZM12.0301 67.4145L13.4263 64.4955H12.7836L12.1409 65.9658L11.3874 64.4955H10.7004L11.8085 66.5928L11.3874 67.3929L12.0301 67.4145ZM8.861 64.9495C9.1491 64.9495 9.41504 65.0793 9.59233 65.2739V64.6036C9.37072 64.4738 9.10478 64.4306 8.861 64.4306C8.4621 64.4089 8.0632 64.5603 7.75294 64.8197C7.44268 65.1225 7.26539 65.5334 7.26539 65.9658C7.24323 66.3767 7.42052 66.7875 7.75294 67.0903C8.04104 67.3714 8.43995 67.5227 8.83885 67.5011C9.10479 67.5011 9.34857 67.4578 9.57018 67.3281V66.6578C9.39289 66.8524 9.1491 66.982 8.861 66.982C8.30697 67.0037 7.86377 66.5712 7.8416 66.0306C7.8416 66.009 7.8416 65.9874 7.8416 65.9658C7.88593 65.4253 8.26265 64.9495 8.861 64.9495ZM5.3817 65.9658C5.3817 66.5496 4.96064 66.982 4.38445 66.982C3.80826 66.982 3.38717 66.5496 3.38717 65.9658C3.38717 65.382 3.80826 64.9495 4.38445 64.9495C4.96064 64.9495 5.3817 65.3604 5.3817 65.9658ZM2.78884 65.9658C2.78884 66.8524 3.45368 67.4795 4.38445 67.4795C5.33739 67.4795 5.98006 66.8524 5.98006 65.9658C5.98006 65.0793 5.33739 64.4306 4.38445 64.4306C3.43151 64.4306 2.78884 65.0793 2.78884 65.9658ZM0.882964 64.9928H1.88022V64.4955H0.2846V67.4145H0.860781L0.882964 64.9928ZM20.2519 71.9121C20.2519 71.6743 20.0968 71.4796 19.6758 71.4796H19.166V72.323H19.6758C20.1633 72.323 20.2519 72.0635 20.2519 71.9121ZM20.407 73.6419C20.407 73.2094 19.9417 73.2094 19.7422 73.2094H19.166V74.096H19.7422C19.9195 74.096 20.407 74.0744 20.407 73.6419ZM2.67802 70.5931L3.54231 72.431L4.25145 70.5931H5.60329L3.58664 74.9609H2.25695L2.85532 73.75L1.17104 70.5931H2.67802ZM6.68921 70.5931H7.95242V72.1716H9.48152V70.5931H10.7447V74.9609H9.48152V73.2094H7.95242V74.9609H6.68921V70.5931ZM12.2295 70.5931H13.4263V73.2094L15.1548 70.5931H16.3737V74.9609H15.177V72.3446L13.4484 74.9609H12.2295V70.5931ZM17.9028 70.5931H20.0746C21.2935 70.5931 21.4043 71.3715 21.4043 71.7174C21.4043 72.1283 21.1162 72.496 20.7173 72.6257V72.6473C21.0054 72.7122 21.6703 72.9716 21.6703 73.75C21.6703 74.3554 21.2492 74.9609 20.2076 74.9609H17.925L17.9028 70.5931ZM22.9556 70.5931H25.6371V71.631H24.1966V72.2365H25.482V73.1879H24.1745V73.8797H25.615V74.9177H22.9334V70.5931H22.9556ZM27.0111 70.5931H28.8948C30.158 70.5931 30.5348 71.458 30.5348 72.0418C30.5348 72.6257 30.1801 73.5122 28.8948 73.5122H28.2522V74.9609H26.9889V70.5931H27.0111ZM33.3492 70.4851C33.7924 70.4851 34.2135 70.5931 34.5681 70.831V72.0851C34.3021 71.7608 33.9254 71.5662 33.5044 71.5662C32.8174 71.5662 32.3519 72.1067 32.3519 72.8202C32.3519 73.4905 32.773 73.988 33.5044 73.988C33.9033 73.9663 34.28 73.8149 34.5681 73.5122V74.7447C34.2135 74.9826 33.7925 75.0907 33.3714 75.0691C32.0417 75.0691 31.0888 74.1609 31.0888 72.7554C31.0888 71.3283 32.1304 70.4851 33.3492 70.4851ZM35.8978 70.5931H37.0945V73.2094L38.8231 70.5931H40.0419V74.9609H38.8452V72.3446L37.1167 74.9609H35.8978V70.5931ZM41.2164 70.5931H44.4299V71.631H43.4548V74.9394H42.1916V71.631H41.2164V70.5931ZM45.6044 70.5931H48.2859V71.631H46.8454V72.2365H48.1529V73.1879H46.8454V73.8797H48.2859V74.9177H45.6044V70.5931ZM49.3054 70.5931H52.5187V71.631H51.5215V74.9394H50.2805V71.631H49.3054V70.5931ZM0.306749 76.28H53.7376V69.1443H0.306749V76.28ZM29.2273 72.0635C29.2273 71.8473 29.1386 71.5662 28.6067 71.5662H28.2522V72.5608H28.6067C29.1608 72.5608 29.2273 72.2365 29.2273 72.0635ZM46.4244 62.8738H48.574L51.6101 58.2897V62.8738H53.7376V55.2192H51.588L48.5519 59.8034V55.2192H46.4244V62.8738ZM52.4301 53.576L51.1669 53.1218C50.9675 53.6408 50.4799 53.7705 50.0588 53.7705C49.6599 53.7705 49.1724 53.6408 48.9508 53.1218L47.6876 53.576C48.1086 54.4625 49.1059 54.8085 50.0367 54.8085C50.9896 54.8085 51.9869 54.4841 52.4301 53.576ZM37.715 55.2192V62.8738H39.8646L42.9007 58.2897V62.8738H45.0282V55.2192H42.8785L39.8425 59.8034V55.2192H37.715ZM29.8699 55.2192V62.8738H32.0639V59.5871L34.3465 62.8738H37.0945L34.0362 58.9168L37.0058 55.2192H34.4351L32.0639 58.4411V55.2192H29.8699ZM26.9003 56.9275C27.7424 56.9275 28.3629 57.3815 28.7618 57.8356V55.6085C28.1191 55.1977 27.3657 55.003 26.6122 55.003C24.4847 55.003 22.6454 56.495 22.6454 59.0465C22.6454 61.4899 24.3296 63.0899 26.6565 63.0899C27.3214 63.0899 28.0748 62.9818 28.784 62.5277V60.3439C28.3851 60.7548 27.7424 61.1655 26.9225 61.1655C25.6593 61.1655 24.928 60.2574 24.928 59.0898C24.9058 57.8573 25.7036 56.9275 26.9003 56.9275ZM18.6342 58.6789H18.0137V56.9058H18.6342C19.5871 56.9058 19.7201 57.4032 19.7201 57.7708C19.6979 58.1168 19.6093 58.6789 18.6342 58.6789ZM21.9584 57.7923C21.9584 56.7328 21.3378 55.2408 19.0995 55.2408H15.7975V62.8954H17.9915V60.3654H19.0995C21.3378 60.3438 21.9584 58.8302 21.9584 57.7923ZM9.30426 62.8738H11.6533L15.177 55.2192H12.7836L11.5204 58.4411L9.99125 55.2192H7.39839L10.3458 60.7548L9.30426 62.8738ZM0.2846 55.2192V62.8738H2.47858V59.5871L4.76119 62.8738H7.50916L4.45093 58.9168L7.44268 55.2192H4.872L2.50073 58.4411V55.2192H0.2846Z" fill="#2F7EBA"/>
</svg>
