<svg viewBox="0 0 28 28" fill="none" xmlns="http://www.w3.org/2000/svg">
  <path d="M14 0.875C8.68426 0.875 4.375 5.18426 4.375 10.5C4.375 14.0592 6.30737 17.1661 9.17602 18.8305C9.97572 19.2945 10.4765 20.0065 10.4992 20.723C10.5117 21.1182 10.7877 21.4559 11.1725 21.5469C11.5824 21.6437 12.0002 21.72 12.4245 21.7745C12.8021 21.823 13.1252 21.5206 13.1252 21.14V15.7021C12.7527 15.6609 12.3877 15.5937 12.0321 15.5021C11.5641 15.3817 11.2824 14.9046 11.4028 14.4367C11.5233 13.9687 12.0003 13.6869 12.4683 13.8074C12.9569 13.9331 13.4701 14.0002 14.0002 14.0002C14.5304 14.0002 15.0435 13.9331 15.5321 13.8074C16.0001 13.6869 16.4771 13.9687 16.5976 14.4367C16.718 14.9046 16.4363 15.3817 15.9683 15.5021C15.6127 15.5937 15.2477 15.6609 14.8752 15.7021V21.1399C14.8752 21.5206 15.1984 21.823 15.5759 21.7745C16.0001 21.72 16.4177 21.6437 16.8275 21.5469C17.2123 21.4559 17.4883 21.1182 17.5008 20.723C17.5235 20.0065 18.0243 19.2945 18.824 18.8305C21.6926 17.1661 23.625 14.0592 23.625 10.5C23.625 5.18426 19.3157 0.875 14 0.875Z" fill="#FFD102" />
  <path fill-rule="evenodd" clip-rule="evenodd" d="M10.5153 23.2163C10.6054 22.7415 11.0633 22.4296 11.5381 22.5197C12.3349 22.6708 13.1578 22.75 14 22.75C14.8422 22.75 15.6651 22.6708 16.4619 22.5197C16.9367 22.4296 17.3946 22.7415 17.4847 23.2163C17.5747 23.691 17.2629 24.1489 16.7881 24.239C15.8843 24.4104 14.9522 24.5 14 24.5C13.0478 24.5 12.1157 24.4104 11.2119 24.239C10.7371 24.1489 10.4253 23.691 10.5153 23.2163Z" fill="#FFD102" />
  <path fill-rule="evenodd" clip-rule="evenodd" d="M11.3797 26.068C11.43 25.5873 11.8604 25.2385 12.341 25.2887C12.886 25.3458 13.4394 25.375 14 25.375C14.5606 25.375 15.114 25.3458 15.659 25.2887C16.1396 25.2385 16.57 25.5873 16.6203 26.068C16.6705 26.5486 16.3217 26.979 15.841 27.0292C15.2357 27.0926 14.6215 27.125 14 27.125C13.3785 27.125 12.7643 27.0926 12.159 27.0292C11.6783 26.979 11.3295 26.5486 11.3797 26.068Z" fill="#FFD102" />
</svg>